<svg width="41" height="40" viewBox="0 0 41 40" fill="none" xmlns="http://www.w3.org/2000/svg">
<path d="M40.8802 20C40.8802 8.95431 31.9454 0 20.9238 0C9.90214 0 0.967346 8.95431 0.967346 20C0.967346 31.0457 9.90214 40 20.9238 40C31.9454 40 40.8802 31.0457 40.8802 20Z" fill="white"/>
<path d="M20.9237 28.9669C20.0174 28.9669 19.1194 28.7 18.4126 28.175L14.837 25.5C13.8891 24.792 13.1491 23.3079 13.1491 22.1329V15.933C13.1491 14.65 14.0887 13.2829 15.2944 12.8329L19.4437 11.2749C20.2669 10.9669 21.564 10.9669 22.3872 11.2749L26.5365 12.8329C27.7422 13.2829 28.6818 14.65 28.6818 15.933V22.125C28.6818 23.308 27.9418 24.783 26.9939 25.492L23.4183 28.167C22.7282 28.7 21.8302 28.9669 20.9237 28.9669ZM19.8844 12.4499L15.7351 14.0079C15.0283 14.2749 14.4047 15.175 14.4047 15.942V22.1329C14.4047 22.9249 14.9618 24.033 15.5854 24.5L19.161 27.175C20.1172 27.892 21.7304 27.892 22.6949 27.175L26.2705 24.5C26.9024 24.025 27.4512 22.9249 27.4512 22.1329V15.933C27.4512 15.175 26.8275 14.275 26.1208 14L21.9714 12.442C21.4061 12.242 20.4415 12.2419 19.8844 12.4499Z" fill="#797978"/>
<path d="M19.8095 21.858C19.6515 21.858 19.4935 21.8 19.3687 21.675L18.0301 20.333C17.7889 20.092 17.7889 19.692 18.0301 19.45C18.2711 19.208 18.6703 19.208 18.9114 19.45L19.8095 20.35L22.9443 17.208C23.1854 16.967 23.5845 16.967 23.8257 17.208C24.0669 17.45 24.0669 17.85 23.8257 18.092L20.2502 21.675C20.1255 21.8 19.9674 21.858 19.8095 21.858Z" fill="#797978"/>
</svg>
