<svg width="41" height="40" viewBox="0 0 41 40" fill="none" xmlns="http://www.w3.org/2000/svg">
<path d="M40.8802 20C40.8802 8.95431 31.9454 0 20.9238 0C9.90214 0 0.967346 8.95431 0.967346 20C0.967346 31.0457 9.90214 40 20.9238 40C31.9454 40 40.8802 31.0457 40.8802 20Z" fill="white"/>
<path d="M22.0879 24.517H20.0008C18.6371 24.517 17.5312 23.367 17.5312 21.95C17.5312 21.608 17.8139 21.325 18.1548 21.325C18.4958 21.325 18.7784 21.608 18.7784 21.95C18.7784 22.675 19.3272 23.267 20.0008 23.267H22.0879C22.6283 23.267 23.0774 22.783 23.0774 22.2C23.0774 21.475 22.8196 21.333 22.3955 21.183L19.0446 20C18.396 19.775 17.5229 19.292 17.5229 17.8C17.5229 16.517 18.529 15.483 19.7596 15.483H21.8467C23.2105 15.483 24.3164 16.633 24.3164 18.05C24.3164 18.392 24.0337 18.675 23.6927 18.675C23.3518 18.675 23.0691 18.392 23.0691 18.05C23.0691 17.325 22.5203 16.733 21.8467 16.733H19.7596C19.2192 16.733 18.7702 17.217 18.7702 17.8C18.7702 18.525 19.0279 18.667 19.452 18.817L22.803 20C23.4515 20.225 24.3246 20.708 24.3246 22.2C24.3164 23.475 23.3185 24.517 22.0879 24.517Z" fill="#797978"/>
<path d="M20.9237 25.625C20.5828 25.625 20.3001 25.342 20.3001 25V15C20.3001 14.658 20.5828 14.375 20.9237 14.375C21.2647 14.375 21.5474 14.658 21.5474 15V25C21.5474 25.342 21.2647 25.625 20.9237 25.625Z" fill="#797978"/>
<path d="M20.9237 28.958C15.9928 28.958 11.9849 24.942 11.9849 20C11.9849 15.058 15.9928 11.042 20.9237 11.042C25.8546 11.042 29.8625 15.058 29.8625 20C29.8625 24.942 25.8546 28.958 20.9237 28.958ZM20.9237 12.292C16.683 12.292 13.2321 15.75 13.2321 20C13.2321 24.25 16.683 27.708 20.9237 27.708C25.1645 27.708 28.6153 24.25 28.6153 20C28.6153 15.75 25.1645 12.292 20.9237 12.292Z" fill="#797978"/>
</svg>
