<svg width="41" height="40" viewBox="0 0 41 40" fill="none" xmlns="http://www.w3.org/2000/svg">
<path d="M40.8802 20C40.8802 8.95431 31.9454 0 20.9238 0C9.90214 0 0.967346 8.95431 0.967346 20C0.967346 31.0457 9.90214 40 20.9238 40C31.9454 40 40.8802 31.0457 40.8802 20Z" fill="white"/>
<path d="M25.9128 18.958C25.5719 18.958 25.2892 18.675 25.2892 18.333V16.667C25.2892 14.042 24.5491 12.292 20.9237 12.292C17.2983 12.292 16.5583 14.042 16.5583 16.667V18.333C16.5583 18.675 16.2756 18.958 15.9346 18.958C15.5937 18.958 15.311 18.675 15.311 18.333V16.667C15.311 14.25 15.893 11.042 20.9237 11.042C25.9544 11.042 26.5365 14.25 26.5365 16.667V18.333C26.5365 18.675 26.2538 18.958 25.9128 18.958Z" fill="#797978"/>
<path d="M20.9238 26.042C19.4353 26.042 18.2213 24.825 18.2213 23.333C18.2213 21.842 19.4353 20.625 20.9238 20.625C22.4121 20.625 23.6262 21.842 23.6262 23.333C23.6262 24.825 22.4121 26.042 20.9238 26.042ZM20.9238 21.875C20.1255 21.875 19.4685 22.533 19.4685 23.333C19.4685 24.133 20.1255 24.792 20.9238 24.792C21.722 24.792 22.3789 24.133 22.3789 23.333C22.3789 22.533 21.722 21.875 20.9238 21.875Z" fill="#797978"/>
<path d="M25.0813 28.958H16.7661C13.0991 28.958 11.9849 27.842 11.9849 24.167V22.5C11.9849 18.825 13.0991 17.708 16.7661 17.708H25.0813C28.7483 17.708 29.8625 18.825 29.8625 22.5V24.167C29.8625 27.842 28.7483 28.958 25.0813 28.958ZM16.7661 18.958C13.7893 18.958 13.2321 19.525 13.2321 22.5V24.167C13.2321 27.142 13.7893 27.708 16.7661 27.708H25.0813C28.0582 27.708 28.6153 27.142 28.6153 24.167V22.5C28.6153 19.525 28.0582 18.958 25.0813 18.958H16.7661Z" fill="#797978"/>
</svg>
