<svg width="41" height="40" viewBox="0 0 41 40" fill="none" xmlns="http://www.w3.org/2000/svg">
<path d="M40.8802 20C40.8802 8.95431 31.9454 0 20.9238 0C9.90214 0 0.967346 8.95431 0.967346 20C0.967346 31.0457 9.90214 40 20.9238 40C31.9454 40 40.8802 31.0457 40.8802 20Z" fill="white"/>
<path d="M20.9238 28.9673C20.0173 28.9673 19.1193 28.7003 18.4125 28.1753L17.0904 27.1834C16.816 26.9754 16.7579 26.5834 16.9657 26.3084C17.1735 26.0334 17.5644 25.9754 17.8388 26.1834L19.1609 27.1753C20.1171 27.8923 21.7386 27.8923 22.6949 27.1753L26.2704 24.5003C26.9023 24.0253 27.4511 22.9173 27.4511 22.1333V15.9333C27.4511 15.5923 27.7339 15.3083 28.0747 15.3083C28.4157 15.3083 28.6984 15.5923 28.6984 15.9333V22.1253C28.6984 23.3083 27.9584 24.7833 27.0105 25.4923L23.4349 28.1673C22.7281 28.7003 21.8301 28.9673 20.9238 28.9673Z" fill="#797978"/>
<path d="M15.3775 25.75C15.2445 25.75 15.1198 25.708 15.0034 25.625L14.837 25.5C13.8891 24.792 13.1491 23.3079 13.1491 22.1329V15.933C13.1491 14.65 14.0887 13.283 15.2944 12.833L19.4437 11.2749C20.2669 10.9669 21.564 10.9669 22.3872 11.2749L26.5449 12.833C26.7195 12.9 26.8857 12.983 27.0521 13.083C27.3431 13.267 27.4345 13.6499 27.2516 13.9419C27.0687 14.2329 26.6862 14.3249 26.3952 14.1419C26.3037 14.0829 26.2122 14.033 26.1124 14L21.9549 12.4419C21.4061 12.2329 20.4332 12.2329 19.8844 12.4419L15.7351 14.0079C15.02 14.2749 14.3964 15.1749 14.3964 15.9419V22.1329C14.3964 22.9249 14.9535 24.033 15.5771 24.5L15.7434 24.625C16.0178 24.833 16.076 25.225 15.8682 25.5C15.76 25.658 15.5688 25.75 15.3775 25.75Z" fill="#797978"/>
<path d="M12.6085 28.9581C12.4506 28.9581 12.2926 28.9001 12.1679 28.7751C11.9267 28.5331 11.9267 28.1331 12.1679 27.8921L28.7982 11.2251C29.0393 10.9831 29.4385 10.9831 29.6796 11.2251C29.9207 11.4671 29.9207 11.8671 29.6796 12.1081L13.0493 28.7751C12.9245 28.9001 12.7666 28.9581 12.6085 28.9581Z" fill="#797978"/>
</svg>
