<svg width="41" height="40" viewBox="0 0 41 40" fill="none" xmlns="http://www.w3.org/2000/svg">
<path d="M40.8802 20C40.8802 8.95431 31.9454 0 20.9238 0C9.90214 0 0.967346 8.95431 0.967346 20C0.967346 31.0457 9.90214 40 20.9238 40C31.9454 40 40.8802 31.0457 40.8802 20Z" fill="white"/>
<path d="M15.1032 28.225C14.4878 28.225 13.8808 27.992 13.4152 27.525C12.9661 27.075 12.7167 26.475 12.7167 25.833C12.7167 25.192 12.9661 24.592 13.4152 24.142L24.2249 13.308C25.1562 12.375 26.6696 12.375 27.6009 13.308C28.0499 13.758 28.2994 14.358 28.2994 15C28.2994 15.642 28.0499 16.242 27.6009 16.692L16.7912 27.525C16.3255 27.992 15.7185 28.225 15.1032 28.225ZM25.9129 13.858C25.6219 13.858 25.3308 13.967 25.1063 14.192L14.2966 25.025C14.0804 25.242 13.964 25.525 13.964 25.833C13.964 26.142 14.0804 26.425 14.2966 26.642C14.7373 27.083 15.4691 27.083 15.9097 26.642L26.7195 15.808C26.9356 15.592 27.0521 15.308 27.0521 15C27.0521 14.692 26.9356 14.408 26.7195 14.192C26.495 13.967 26.2039 13.858 25.9129 13.858Z" fill="#797978"/>
<path d="M25.9211 18.117C25.7632 18.117 25.6051 18.0581 25.4804 17.9331L22.9859 15.4331C22.7448 15.1921 22.7448 14.792 22.9859 14.55C23.227 14.308 23.6262 14.308 23.8673 14.55L26.3619 17.05C26.603 17.292 26.603 17.6921 26.3619 17.9331C26.2372 18.0581 26.0791 18.117 25.9211 18.117Z" fill="#797978"/>
<path d="M19.2608 14.583C19.2191 14.583 19.1859 14.575 19.1443 14.567L18.0135 14.233L16.8825 14.567C16.7329 14.608 16.5749 14.567 16.4751 14.458C16.3671 14.35 16.3255 14.2 16.3671 14.05L16.6996 12.917L16.3671 11.783C16.3255 11.633 16.3671 11.475 16.4751 11.375C16.5832 11.267 16.7413 11.225 16.8825 11.267L18.0135 11.6L19.1443 11.267C19.294 11.225 19.4437 11.267 19.5517 11.375C19.6599 11.483 19.7014 11.642 19.6599 11.783L19.3272 12.917L19.6599 14.05C19.7014 14.2 19.6599 14.358 19.5517 14.458C19.4769 14.542 19.3688 14.583 19.2608 14.583ZM18.0135 13.383C18.055 13.383 18.0883 13.392 18.1298 13.4L18.6454 13.55L18.4957 13.033C18.4708 12.958 18.4708 12.875 18.4957 12.8L18.6454 12.283L18.1298 12.433C18.055 12.458 17.9719 12.458 17.897 12.433L17.3815 12.283L17.5311 12.8C17.5561 12.875 17.5561 12.958 17.5311 13.033L17.3815 13.55L17.897 13.4C17.9386 13.392 17.9719 13.383 18.0135 13.383Z" fill="#797978"/>
<path d="M15.9346 19.583C15.893 19.583 15.8598 19.575 15.8182 19.567L14.6874 19.233L13.5565 19.567C13.4069 19.608 13.2572 19.567 13.149 19.458C13.041 19.35 12.9994 19.192 13.041 19.05L13.3735 17.917L13.041 16.783C12.9994 16.633 13.041 16.475 13.149 16.375C13.2572 16.275 13.4151 16.225 13.5565 16.267L14.6874 16.6L15.8182 16.267C15.9596 16.225 16.1175 16.267 16.2257 16.375C16.3338 16.483 16.3754 16.642 16.3338 16.783L16.0012 17.917L16.3338 19.05C16.3754 19.2 16.3338 19.358 16.2257 19.458C16.1509 19.542 16.0427 19.583 15.9346 19.583ZM14.6874 18.383C14.729 18.383 14.7622 18.392 14.8038 18.4L15.3193 18.55L15.1696 18.033C15.1447 17.958 15.1447 17.875 15.1696 17.8L15.3193 17.283L14.8038 17.433C14.729 17.458 14.6458 17.458 14.5709 17.433L14.0554 17.283L14.2051 17.8C14.2301 17.875 14.2301 17.958 14.2051 18.033L14.0554 18.55L14.5709 18.4C14.6125 18.392 14.6458 18.383 14.6874 18.383Z" fill="#797978"/>
<path d="M28.4074 23.7501C28.3658 23.7501 28.3326 23.7421 28.291 23.7331L27.1601 23.4001L26.0293 23.7331C25.8796 23.7751 25.73 23.7331 25.6218 23.6251C25.5137 23.5171 25.4721 23.3581 25.5137 23.2171L25.8463 22.0831L25.5137 20.9501C25.4721 20.8001 25.5137 20.6421 25.6218 20.5421C25.73 20.4421 25.8879 20.3921 26.0293 20.4331L27.1601 20.7671L28.291 20.4331C28.4324 20.3921 28.5903 20.4331 28.6985 20.5421C28.8065 20.6501 28.8482 20.8081 28.8066 20.9501L28.474 22.0831L28.8066 23.2171C28.8482 23.3671 28.8065 23.5251 28.6985 23.6251C28.6236 23.7081 28.5155 23.7501 28.4074 23.7501ZM27.1601 22.5501C27.2018 22.5501 27.235 22.5581 27.2766 22.5671L27.7921 22.7171L27.6424 22.2001C27.6174 22.1251 27.6174 22.0421 27.6424 21.9671L27.7921 21.4501L27.2766 21.6001C27.2018 21.6251 27.1185 21.6251 27.0437 21.6001L26.5282 21.4501L26.6779 21.9671C26.7028 22.0421 26.7028 22.1251 26.6779 22.2001L26.5282 22.7171L27.0437 22.5671C27.0853 22.5581 27.1185 22.5501 27.1601 22.5501Z" fill="#797978"/>
</svg>
