<svg width="16" height="12" viewBox="0 0 16 12" fill="none" xmlns="http://www.w3.org/2000/svg">
<path fill-rule="evenodd" clip-rule="evenodd" d="M16 1C16 1.55228 15.5523 2 15 2L1 2C0.447715 2 0 1.55229 0 1C0 0.447716 0.447715 0 1 0H15C15.5523 0 16 0.447715 16 1ZM16 6C16 6.55228 15.5523 7 15 7L1 7C0.447715 7 0 6.55229 0 6C0 5.44772 0.447715 5 1 5L15 5C15.5523 5 16 5.44771 16 6ZM15 12C15.5523 12 16 11.5523 16 11C16 10.4477 15.5523 10 15 10L1 10C0.447715 10 0 10.4477 0 11C0 11.5523 0.447715 12 1 12L15 12Z" fill="#312B21"/>
</svg>
