<svg width="20" height="20" viewBox="0 0 20 20" fill="none" xmlns="http://www.w3.org/2000/svg">
<path d="M12.5 18.9584H7.49999C2.97499 18.9584 1.04166 17.0251 1.04166 12.5001V7.50008C1.04166 2.97508 2.97499 1.04175 7.49999 1.04175H11.6667C12.0083 1.04175 12.2917 1.32508 12.2917 1.66675C12.2917 2.00841 12.0083 2.29175 11.6667 2.29175H7.49999C3.65832 2.29175 2.29166 3.65841 2.29166 7.50008V12.5001C2.29166 16.3417 3.65832 17.7084 7.49999 17.7084H12.5C16.3417 17.7084 17.7083 16.3417 17.7083 12.5001V8.33342C17.7083 7.99175 17.9917 7.70842 18.3333 7.70842C18.675 7.70842 18.9583 7.99175 18.9583 8.33342V12.5001C18.9583 17.0251 17.025 18.9584 12.5 18.9584Z" fill="#FF9431"/>
<path d="M18.3333 8.95841H15C12.15 8.95841 11.0417 7.85007 11.0417 5.00007V1.66674C11.0417 1.41674 11.1917 1.18341 11.425 1.09174C11.6583 0.991739 11.925 1.05007 12.1083 1.22507L18.775 7.89174C18.95 8.06674 19.0083 8.34174 18.9083 8.57507C18.8083 8.8084 18.5833 8.95841 18.3333 8.95841ZM12.2917 3.17507V5.00007C12.2917 7.15007 12.85 7.70841 15 7.70841H16.825L12.2917 3.17507Z" fill="#FF9431"/>
<path d="M10.8333 11.4583H5.83334C5.49168 11.4583 5.20834 11.1749 5.20834 10.8333C5.20834 10.4916 5.49168 10.2083 5.83334 10.2083H10.8333C11.175 10.2083 11.4583 10.4916 11.4583 10.8333C11.4583 11.1749 11.175 11.4583 10.8333 11.4583Z" fill="#FF9431"/>
<path d="M9.16668 14.7917H5.83334C5.49168 14.7917 5.20834 14.5084 5.20834 14.1667C5.20834 13.8251 5.49168 13.5417 5.83334 13.5417H9.16668C9.50834 13.5417 9.79168 13.8251 9.79168 14.1667C9.79168 14.5084 9.50834 14.7917 9.16668 14.7917Z" fill="#FF9431"/>
</svg>
